<?xml version="1.0" encoding="utf-8"?>
<!-- Generator: Adobe Illustrator 24.2.3, SVG Export Plug-In . SVG Version: 6.00 Build 0)  -->
<svg version="1.1" id="Layer_1" xmlns="http://www.w3.org/2000/svg" xmlns:xlink="http://www.w3.org/1999/xlink" x="0px" y="0px"
	 viewBox="0 0 512 508.2" style="enable-background:new 0 0 512 508.2;" xml:space="preserve">
<style type="text/css">
	.st0{fill:#E8E9E8;}
</style>
<g>
	<g>
		<path class="st0" d="M461,489.3l-25.5-317.6c-0.6-9.3-7.9-16.4-16.7-16.4h-58.4v-38.5c0-33.4-25.8-60.6-57.6-60.6h-93.4
			c-31.8,0-57.6,27.2-57.6,60.6v38.5H93.3c-8.8,0-16.1,7.2-16.7,16.4L51,489.3c-0.3,4.9,1.3,9.7,4.5,13.3c3.2,3.6,7.6,5.6,12.3,5.6
			h376.4c4.7,0,9.1-2,12.3-5.6C459.7,499,461.3,494.2,461,489.3z M326.8,155.1H185.2v-38.3c0-13.9,10.8-25.3,24-25.3h93.4
			c13.3,0,24,11.3,24,25.3v38.3H326.8z"/>
	</g>
</g>
</svg>
