<?xml version="1.0" encoding="UTF-8"?>
<svg width="271.05px" height="50.005px" style="background:rgba(0, 0, 0, 0)" preserveAspectRatio="xMidYMid" viewBox="114.48 49.997 271.05 50.005" xmlns="http://www.w3.org/2000/svg">
<defs>
<filter id="a">
<feGaussianBlur in="SourceAlpha" result="blur" stdDeviation="4"/>
<feSpecularLighting lighting-color="#444444" in="blur" result="specular" specularConstant="0.8" specularExponent="7.5" surfaceScale="5">
<fePointLight x="-250" y="-50" z="300"/>
</feSpecularLighting>
<feComposite in="specular" in2="SourceAlpha" operator="in" result="comp"/>
<feComposite in="SourceGraphic" in2="comp" k2="1" k3="1" operator="arithmetic"/>
</filter>
</defs>
<g filter="url(#a)">
<g transform="translate(157.42 83.995)">
<path d="m1.14 0.06q-0.15 0-0.24-0.13-0.08-0.12-0.08-0.29 0.02-0.29 0.11-0.34 0.1-0.06 0.36-0.06 0.55 0 0.82-0.2t0.33-0.49q0.07-0.3 0.09-0.77v-7.55q-0.02-0.47-0.09-0.77-0.06-0.29-0.33-0.49t-0.82-0.2h-0.11q-0.19 0-0.27-0.07-0.07-0.06-0.09-0.33 0-0.17 0.08-0.29 0.09-0.13 0.24-0.13 1.25 0.06 2.26 0.06 1.14 0 2.38-0.06 0.17 0 0.25 0.13 0.09 0.12 0.09 0.29-0.02 0.29-0.13 0.34-0.1 0.06-0.35 0.06-0.55 0-0.81 0.2-0.27 0.2-0.34 0.49-0.06 0.3-0.08 0.77v7.83q0.04 0.4 0.09 0.62 0.06 0.22 0.34 0.4 0.29 0.18 0.9 0.16h1.71q0.66-0.02 1.01-0.22 0.34-0.2 0.54-0.62 0.2-0.41 0.48-1.36 0.13-0.35 0.65-0.27 0.17 0.04 0.32 0.15 0.15 0.12 0.13 0.29l-0.38 2.39q-0.05 0.25-0.17 0.32-0.11 0.08-0.38 0.08h-6.23q-1.03 0-2.28 0.06zm14.91 0.17q-1.29 0-2.29-0.62-1.01-0.62-1.57-1.63-0.56-1.02-0.56-2.16 0-1.42 0.66-2.48 0.67-1.05 1.69-1.61 1.03-0.56 2.07-0.56 1.3 0 2.3 0.61 1.01 0.62 1.57 1.64 0.56 1.01 0.56 2.15 0 1.43-0.67 2.48-0.68 1.06-1.7 1.62-1.03 0.56-2.06 0.56zm0-0.7q1.3 0 1.9-1.11 0.59-1.1 0.59-2.85 0-1.63-0.61-2.67-0.62-1.03-1.88-1.03-1.31 0-1.89 1.08-0.59 1.08-0.59 2.83 0 1.64 0.6 2.69 0.61 1.06 1.88 1.06zm8.4 0.7q-1.14 0-1.84-0.65-0.7-0.64-0.7-1.61 0-1.2 0.79-1.8 0.8-0.6 1.91-0.78 1.1-0.18 2.84-0.27v-1.5q0-0.93-0.46-1.42-0.47-0.48-1.49-0.48-0.59 0-1.03 0.36-0.43 0.36-0.43 0.97 0 0.3 0.14 0.5t0.3 0.33q0.16 0.14 0.16 0.15 0 0.12-0.23 0.3-0.24 0.18-0.58 0.18-0.57 0-0.91-0.42-0.33-0.42-0.33-0.99 0-0.98 0.88-1.46 0.89-0.47 2.14-0.47 1.56 0 2.54 0.58 0.98 0.59 0.98 2.19v4.43q0.02 0.4 0.24 0.76 0.23 0.36 0.74 0.36 0.16 0 0.22 0.05 0.07 0.06 0.07 0.25 0 0.23-0.35 0.33-0.35 0.11-0.7 0.11-0.72 0-1.27-0.42t-0.63-1.12q-0.39 0.74-1.22 1.14t-1.78 0.4zm0.61-1.03q0.65 0 1.2-0.32t0.87-0.88 0.32-1.25v-1.08q-1.99 0.15-2.81 0.64-0.81 0.5-0.81 1.6 0 1.29 1.23 1.29zm10.49 1.03q-1.07 0-1.98-0.58t-1.46-1.62q-0.55-1.03-0.55-2.34 0-1.18 0.57-2.23 0.57-1.04 1.58-1.67 1-0.62 2.24-0.62 0.59 0 1.18 0.14t1.02 0.39h0.06v-2.91q0-0.49-0.03-0.72t-0.24-0.4-0.7-0.17q-0.23 0-0.34-0.07-0.12-0.06-0.12-0.31 0-0.12 0.08-0.22 0.08-0.11 0.23-0.12 1.2-0.17 2.05-0.5 0.27-0.09 0.44-0.11h0.05q0.31 0 0.31 0.36v11.72q0 1.12 1.48 1.12 0.32 0 0.32 0.31 0 0.26-0.32 0.32l-3.02 0.21q-0.13 0-0.15-0.09-0.02-0.08-0.02-0.29v-0.76h-0.06q-0.49 0.51-1.21 0.83-0.71 0.33-1.41 0.33zm0.65-0.95q0.66 0 1.13-0.26 0.46-0.25 0.88-0.69v-5.02q-0.17-0.55-0.71-1-0.55-0.46-1.36-0.46-0.74 0-1.34 0.46-0.6 0.47-0.94 1.36-0.34 0.9-0.34 2.11 0 1.47 0.69 2.48 0.69 1.02 1.99 1.02zm6.53 0.78q-0.13 0-0.22-0.12-0.08-0.11-0.08-0.26 0.02-0.25 0.11-0.3 0.1-0.05 0.34-0.05 0.5 0 0.71-0.17 0.2-0.17 0.23-0.39 0.03-0.23 0.03-0.73v-4.35q0-0.49-0.03-0.72t-0.23-0.4q-0.21-0.17-0.71-0.17-0.23 0-0.34-0.07-0.11-0.06-0.11-0.31 0-0.11 0.07-0.22 0.08-0.1 0.23-0.12 1.2-0.17 2.05-0.5 0.27-0.09 0.44-0.11h0.06q0.3 0 0.3 0.36v6.61q0 0.5 0.04 0.73 0.04 0.22 0.25 0.39 0.2 0.17 0.7 0.17h0.11q0.15 0 0.23 0.06t0.1 0.29q0 0.15-0.08 0.26-0.08 0.12-0.23 0.12-1.1-0.06-1.99-0.06-0.86 0-1.98 0.06zm1.88-11.1q-0.53 0-0.89-0.33t-0.36-0.83q0-0.43 0.43-0.78 0.44-0.34 0.99-0.34 0.48 0 0.78 0.33 0.31 0.34 0.31 0.85 0 0.45-0.37 0.78-0.36 0.32-0.89 0.32zm3.74 11.1q-0.13 0-0.21-0.12-0.09-0.11-0.09-0.26 0.02-0.25 0.11-0.3 0.1-0.05 0.35-0.05 0.49 0 0.7-0.17t0.24-0.39q0.03-0.23 0.03-0.73v-4.35q0-0.49-0.03-0.72t-0.24-0.4-0.7-0.17q-0.23 0-0.35-0.07-0.11-0.06-0.11-0.31 0-0.11 0.08-0.22 0.07-0.1 0.22-0.12 1.24-0.19 2.04-0.5 0.32-0.09 0.44-0.11h0.05q0.31 0 0.31 0.36v1.2h0.05q0.55-0.51 0.9-0.79 0.34-0.28 0.88-0.48 0.54-0.19 1.28-0.19 1.29 0 2.05 0.77 0.76 0.78 0.76 2.06v4.04q0 0.5 0.04 0.73 0.04 0.22 0.25 0.39t0.7 0.17h0.12q0.15 0 0.22 0.06 0.08 0.06 0.1 0.29 0 0.15-0.09 0.26-0.08 0.12-0.22 0.12-1.1-0.06-1.99-0.06-0.86 0-1.98 0.06-0.13 0-0.21-0.12-0.09-0.11-0.09-0.26 0.02-0.25 0.1-0.3 0.09-0.05 0.34-0.05 0.49 0 0.7-0.17t0.25-0.39q0.03-0.23 0.03-0.73v-4.02q0-0.88-0.55-1.34-0.55-0.47-1.27-0.47-0.87 0-1.5 0.43t-0.86 0.88v4.52q0 0.5 0.04 0.73 0.04 0.22 0.25 0.39t0.7 0.17h0.12q0.15 0 0.22 0.06 0.08 0.06 0.1 0.29 0 0.15-0.08 0.26-0.07 0.12-0.22 0.12-1.11-0.06-2-0.06-0.85 0-1.98 0.06zm14.98 4.08q-4.01 0-4.01-2.28 0-0.64 0.41-1.12 0.4-0.47 1.05-0.47 0.27 0 0.49 0.1 0.23 0.1 0.38 0.25 0.14 0.14 0.14 0.22 0 0.01-0.16 0.18-0.16 0.16-0.29 0.4-0.12 0.23-0.12 0.56 0 1.46 2.51 1.46 1.44 0 2.22-0.5 0.78-0.51 0.78-1.5 0-0.6-0.46-0.91-0.45-0.3-1.14-0.39-0.68-0.08-1.78-0.1-1.35-0.04-1.92-0.14-0.74-0.13-1.15-0.47t-0.41-1.06q0-0.75 0.52-1.25t1.49-0.5q-1.12-0.44-1.57-1.09-0.46-0.66-0.46-1.48 0-0.81 0.47-1.48 0.46-0.66 1.3-1.04 0.83-0.38 1.9-0.38 1.37 0 2.11 0.38l2.6-0.5h0.04q0.32 0 0.32 0.46 0 0.26-0.09 0.49-0.08 0.23-0.19 0.23l-1.89-0.08v0.04q0.33 0.33 0.55 0.86 0.23 0.53 0.23 1 0 0.88-0.5 1.55-0.5 0.68-1.32 1.04t-1.71 0.36h-0.84q-0.99 0-1.43 0.19-0.45 0.19-0.45 0.63 0 0.36 0.25 0.53t0.85 0.21l2.61 0.09q1.99 0.08 2.88 0.64 0.88 0.56 0.88 1.7 0 1.48-1.39 2.33-1.39 0.84-3.7 0.84zm0.19-7.71q0.89 0 1.43-0.64 0.54-0.63 0.54-1.76 0-1.04-0.56-1.67t-1.43-0.63q-0.86 0-1.41 0.61t-0.55 1.66q0 1.14 0.55 1.78 0.55 0.65 1.43 0.65zm5.94 5.85q-0.17 0.08-0.3-0.04-0.13-0.11-0.13-0.28 0-0.19 0.19-0.27 0.81-0.3 1.21-0.71t0.4-0.98q0-0.32-0.19-0.52t-0.53-0.43-0.52-0.42-0.18-0.47q0-0.36 0.28-0.66 0.29-0.29 0.67-0.29 0.53 0 0.97 0.33 0.43 0.33 0.69 0.86 0.26 0.54 0.26 1.07 0 1.08-0.82 1.77-0.82 0.7-2 1.04zm8.76 1.67q-0.13 0-0.22-0.11-0.08-0.12-0.08-0.27 0.02-0.25 0.1-0.29 0.09-0.05 0.34-0.05 0.47 0 0.68-0.17t0.26-0.42q0.04-0.25 0.04-0.7v-8.25q0-0.49-0.02-0.72-0.03-0.23-0.24-0.4t-0.7-0.17q-0.23 0-0.35-0.07-0.11-0.06-0.11-0.31 0-0.11 0.08-0.22 0.07-0.1 0.22-0.12 1.24-0.19 2.04-0.5 0.32-0.09 0.43-0.11h0.06q0.3 0 0.3 0.36v0.91h0.06q0.55-0.51 1.29-0.84t1.41-0.33q1.14 0 2.04 0.56 0.9 0.58 1.42 1.61 0.51 1.04 0.51 2.35 0 1.33-0.61 2.36-0.61 1.04-1.61 1.61-1.01 0.57-2.13 0.57-0.78 0-1.31-0.16-0.53-0.17-0.97-0.43h-0.08v2.3q0 0.45 0.05 0.7t0.26 0.42 0.68 0.17h0.11q0.16 0 0.23 0.06 0.08 0.05 0.1 0.28 0 0.15-0.08 0.27-0.07 0.11-0.23 0.11-1.1-0.05-1.99-0.05-0.86 0-1.98 0.05zm5.06-4.37q1.33 0 1.94-1.18 0.62-1.17 0.62-2.66 0-1.48-0.68-2.55-0.69-1.07-2.03-1.07-0.67 0-1.14 0.25-0.46 0.26-0.92 0.73v5.1q0.23 0.57 0.81 0.97 0.58 0.41 1.4 0.41zm6.04 0.48q-0.13 0-0.22-0.12-0.08-0.11-0.08-0.26 0.01-0.25 0.1-0.3 0.08-0.05 0.33-0.05 0.5 0 0.71-0.17 0.2-0.17 0.24-0.39 0.04-0.23 0.04-0.73v-9.27q0-0.49-0.03-0.72t-0.24-0.4q-0.2-0.17-0.7-0.17-0.23 0-0.34-0.07-0.11-0.06-0.11-0.31 0-0.11 0.07-0.22 0.08-0.1 0.23-0.12 1.2-0.17 2.05-0.5 0.27-0.09 0.44-0.11h0.06q0.3 0 0.3 0.36v11.53q0 0.5 0.04 0.73 0.04 0.22 0.24 0.39 0.21 0.17 0.71 0.17h0.11q0.15 0 0.23 0.06t0.09 0.29q0 0.15-0.07 0.26-0.08 0.12-0.23 0.12-1.1-0.06-1.99-0.06-0.86 0-1.98 0.06zm9.92 0.17q-1.43 0-2.43-0.61-0.99-0.61-1.51-1.65-0.51-1.05-0.51-2.32 0-1.12 0.52-2.16 0.53-1.03 1.5-1.68 0.96-0.64 2.22-0.64 1.69 0 2.6 0.86t1.05 2.33q0 0.62-0.35 0.85-0.34 0.23-0.98 0.23h-4.62q0 1.77 0.73 2.8 0.73 1.04 2.27 1.04 0.82 0 1.39-0.35 0.57-0.36 1.08-1.19 0.1-0.1 0.19-0.1 0.13 0 0.23 0.08 0.19 0.11 0.19 0.34 0 0.12-0.04 0.17-0.59 0.95-1.49 1.48-0.9 0.52-2.04 0.52zm-2.51-5.51h3.1q0.97 0 1.02-0.8 0-0.87-0.47-1.48-0.48-0.61-1.35-0.61-0.97 0-1.6 0.77-0.62 0.77-0.7 2.12zm10.01 5.51q-1.14 0-1.84-0.65-0.7-0.64-0.7-1.61 0-1.2 0.79-1.8 0.8-0.6 1.9-0.78 1.11-0.18 2.85-0.27v-1.5q0-0.93-0.46-1.42-0.47-0.48-1.49-0.48-0.59 0-1.03 0.36t-0.44 0.97q0 0.3 0.15 0.5 0.14 0.2 0.3 0.33 0.16 0.14 0.16 0.15 0 0.12-0.24 0.3-0.23 0.18-0.58 0.18-0.56 0-0.9-0.42-0.33-0.42-0.33-0.99 0-0.98 0.88-1.46 0.89-0.47 2.14-0.47 1.56 0 2.54 0.58 0.98 0.59 0.98 2.19v4.43q0.02 0.4 0.24 0.76 0.23 0.36 0.74 0.36 0.16 0 0.22 0.05 0.07 0.06 0.07 0.25 0 0.23-0.35 0.33-0.35 0.11-0.7 0.11-0.72 0-1.27-0.42t-0.63-1.12q-0.4 0.74-1.22 1.14-0.83 0.4-1.78 0.4zm0.61-1.03q0.65 0 1.2-0.32t0.87-0.88 0.32-1.25v-1.08q-1.99 0.15-2.81 0.64-0.82 0.5-0.82 1.6 0 1.29 1.24 1.29zm9.86 1.03q-1.52 0-2.47-0.53-0.95-0.54-0.95-1.5 0-0.56 0.33-0.9 0.34-0.34 0.87-0.34 0.3 0 0.54 0.17t0.24 0.27q0 0.02-0.22 0.24-0.22 0.23-0.22 0.65 0 0.57 0.52 0.9 0.53 0.34 1.51 0.34 0.9 0 1.4-0.39t0.5-1.1q0-0.47-0.28-0.78-0.29-0.3-0.71-0.47-0.43-0.17-1.19-0.4-0.93-0.27-1.52-0.53-0.59-0.27-1.01-0.8t-0.42-1.39q0-0.8 0.5-1.36 0.49-0.58 1.28-0.86t1.66-0.28q1.12 0 1.95 0.47 0.83 0.48 0.83 1.33 0 0.51-0.32 0.87-0.31 0.37-0.82 0.37-0.31 0-0.55-0.18-0.23-0.17-0.23-0.26 0-0.02 0.15-0.15 0.15-0.14 0.27-0.32 0.13-0.18 0.13-0.43-0.04-0.51-0.51-0.79-0.48-0.29-1.13-0.29-0.72 0-1.26 0.33-0.54 0.34-0.54 0.93 0 0.53 0.23 0.84 0.23 0.32 0.68 0.51 0.46 0.18 1.44 0.51 1.01 0.32 1.58 0.6 0.57 0.27 0.9 0.74 0.34 0.46 0.34 1.22 0 0.78-0.46 1.42-0.45 0.64-1.25 0.99t-1.79 0.35zm9.5 0q-1.42 0-2.42-0.61t-1.51-1.65q-0.51-1.05-0.51-2.32 0-1.12 0.52-2.16 0.52-1.03 1.49-1.68 0.97-0.64 2.22-0.64 1.69 0 2.61 0.86 0.91 0.86 1.04 2.33 0 0.62-0.34 0.85t-0.99 0.23h-4.62q0 1.77 0.73 2.8 0.74 1.04 2.27 1.04 0.82 0 1.39-0.35 0.57-0.36 1.09-1.19 0.09-0.1 0.19-0.1 0.13 0 0.22 0.08 0.19 0.11 0.19 0.34 0 0.12-0.03 0.17-0.59 0.95-1.5 1.48-0.9 0.52-2.04 0.52zm-2.51-5.51h3.1q0.97 0 1.03-0.8 0-0.87-0.48-1.48-0.47-0.61-1.35-0.61-0.97 0-1.59 0.77-0.63 0.77-0.71 2.12zm15.53 5.47-2.44-6.74q-0.32-0.75-0.6-1.02-0.29-0.28-0.84-0.35-0.06-0.02-0.21-0.04t-0.19-0.1q-0.04-0.07-0.04-0.26 0-0.23 0.13-0.29 0.12-0.05 0.3-0.06t0.24-0.01q1.16-0.06 1.82 0.33 0.67 0.39 1.1 1.36l1.75 4.92h0.06q0.59-1.83 1.84-6.54h0.91l2.61 6.54h0.05q0.33-0.99 0.63-2.25 0.31-1.27 0.36-1.46l0.34-1.35q0.06-0.22 0.06-0.37 0-0.27-0.17-0.36-0.17-0.08-0.61-0.08h-0.11q-0.15 0-0.22-0.06t-0.09-0.28q0-0.14 0.07-0.26t0.2-0.12q1.08 0.05 1.86 0.05 0.48 0 1.6-0.05 0.13 0 0.21 0.12 0.07 0.12 0.07 0.26-0.02 0.22-0.09 0.28-0.08 0.06-0.23 0.06-0.78 0-1.17 0.24-0.39 0.23-0.56 0.88l-2.11 7.01h-1.12l-2.41-6.21-1.88 6.21h-1.12zm13.89 0.04q-1.15 0-1.85-0.65-0.7-0.64-0.7-1.61 0-1.2 0.8-1.8 0.79-0.6 1.9-0.78 1.1-0.18 2.85-0.27v-1.5q0-0.93-0.47-1.42-0.46-0.48-1.49-0.48-0.59 0-1.03 0.36-0.43 0.36-0.43 0.97 0 0.3 0.14 0.5t0.3 0.33q0.17 0.14 0.17 0.15 0 0.12-0.24 0.3t-0.58 0.18q-0.57 0-0.9-0.42-0.34-0.42-0.34-0.99 0-0.98 0.89-1.46 0.88-0.47 2.13-0.47 1.56 0 2.54 0.58 0.98 0.59 0.98 2.19v4.43q0.02 0.4 0.25 0.76 0.22 0.36 0.74 0.36 0.15 0 0.22 0.05 0.06 0.06 0.06 0.25 0 0.23-0.35 0.33-0.35 0.11-0.69 0.11-0.72 0-1.28-0.42-0.55-0.42-0.62-1.12-0.4 0.74-1.23 1.14t-1.77 0.4zm0.6-1.03q0.65 0 1.2-0.32t0.87-0.88q0.33-0.56 0.33-1.25v-1.08q-2 0.15-2.81 0.64-0.82 0.5-0.82 1.6 0 1.29 1.23 1.29zm6.65 0.86q-0.13 0-0.22-0.12-0.08-0.11-0.08-0.26 0.02-0.25 0.11-0.3 0.1-0.05 0.35-0.05 0.49 0 0.7-0.17t0.24-0.39q0.02-0.23 0.02-0.73v-4.35q0-0.49-0.02-0.72-0.03-0.23-0.24-0.4t-0.7-0.17q-0.23 0-0.35-0.07-0.11-0.06-0.11-0.31 0-0.11 0.08-0.22 0.07-0.1 0.22-0.12 1.2-0.17 2.06-0.5 0.26-0.09 0.43-0.11h0.06q0.3 0 0.3 0.36v6.61q0 0.5 0.04 0.73 0.04 0.22 0.25 0.39t0.7 0.17h0.12q0.15 0 0.22 0.06 0.08 0.06 0.1 0.29 0 0.15-0.08 0.26-0.07 0.12-0.23 0.12-1.1-0.06-1.99-0.06-0.86 0-1.98 0.06zm1.88-11.1q-0.53 0-0.89-0.33t-0.36-0.83q0-0.43 0.44-0.78 0.43-0.34 0.99-0.34 0.47 0 0.77 0.33 0.31 0.34 0.31 0.85 0 0.45-0.36 0.78-0.36 0.32-0.9 0.32zm6.92 11.36q-0.93 0-1.6-0.68-0.66-0.68-0.66-1.96v-5.58l-1.1 0.03q-0.12 0-0.19-0.1-0.08-0.1-0.08-0.24 0-0.17 0.07-0.29 0.06-0.13 0.2-0.14 0.66-0.14 1.03-0.43 0.37-0.3 0.54-0.65 0.18-0.35 0.42-1.07 0.1-0.25 0.42-0.25 0.13 0 0.27 0.07 0.13 0.06 0.13 0.2l-0.13 2.16 2.22-0.13h0.04q0.24 0 0.24 0.36 0 0.21-0.06 0.39-0.07 0.18-0.16 0.18l-2.13-0.06v5.78q0 0.63 0.25 1.05 0.26 0.41 0.85 0.41t1.04-0.21q0.25-0.09 0.31-0.09 0.13 0 0.21 0.1 0.07 0.11 0.15 0.28 0.02 0.04 0.02 0.09 0 0.08-0.12 0.18-0.55 0.36-1.03 0.48t-1.15 0.12zm5.19-0.09q-0.52 0-0.86-0.33-0.34-0.34-0.34-0.87 0-0.49 0.34-0.83 0.34-0.35 0.88-0.35 0.51 0 0.86 0.35 0.35 0.34 0.35 0.83 0 0.53-0.35 0.87-0.35 0.33-0.88 0.33zm4.21 0q-0.51 0-0.85-0.33-0.34-0.34-0.34-0.87 0-0.49 0.34-0.83 0.34-0.35 0.87-0.35 0.52 0 0.87 0.35 0.35 0.34 0.35 0.83 0 0.53-0.35 0.87-0.35 0.33-0.89 0.33zm4.22 0q-0.51 0-0.85-0.33-0.34-0.34-0.34-0.87 0-0.49 0.34-0.83 0.34-0.35 0.87-0.35 0.51 0 0.87 0.35 0.35 0.34 0.35 0.83 0 0.53-0.35 0.87-0.36 0.33-0.89 0.33z" fill="#033"/>
</g>
</g>
<style>text {
  font-size: 64px;
  font-family: Arial Black;
  dominant-baseline: central;
  text-anchor: middle;
}</style>
</svg>
