<svg width="2000px" height="2000px" viewBox="0 -222 2000 2000" id="Laag_1" data-name="Laag 1" xmlns="http://www.w3.org/2000/svg"><defs><style>.cls-2{fill:#f79410;}.cls-3{fill:#ff5f00;}.cls-4{fill:#eb001b;}.cls-5{fill:#f79e1b;}</style></defs><title>MasterCard logo</title><path class="cls-2" d="M1980.94,1001.22v-24h-6.25l-7.23,16.47-7.19-16.47H1954v24h4.44V983.14l6.76,15.6h4.6l6.76-15.64v18.12h4.4Zm-39.65,0V981.33h8v-4.05h-20.44v4.05h8v19.89h4.4Z"/><path class="cls-3" d="M1270.57,1104.15H729.71v-972h540.87Z"/><path class="cls-4" d="M764,618.17c0-197.17,92.32-372.81,236.08-486A615.46,615.46,0,0,0,618.09,0C276.72,0,0,276.76,0,618.17s276.72,618.17,618.09,618.17a615.46,615.46,0,0,0,382-132.17C856.34,991,764,815.35,764,618.17"/><path class="cls-5" d="M2000.25,618.17c0,341.41-276.72,618.17-618.09,618.17a615.65,615.65,0,0,1-382.05-132.17c143.8-113.19,236.12-288.82,236.12-486s-92.32-372.81-236.12-486A615.65,615.65,0,0,1,1382.15,0c341.37,0,618.09,276.76,618.09,618.17"/></svg>